<svg width="563" height="362" viewBox="0 0 563 362" fill="none" xmlns="http://www.w3.org/2000/svg">
<g filter="url(#filter0_d_482_1626)">
<rect x="130" y="102" width="302.608" height="102" rx="51" fill="url(#paint0_linear_482_1626)" shape-rendering="crispEdges"/>
<rect x="124" y="96" width="314.608" height="114" rx="57" stroke="#E1E1E1" stroke-opacity="0.43" stroke-width="12" shape-rendering="crispEdges"/>
</g>
<path d="M250.526 160.348L245.702 155.548L247.31 153.94L252.11 158.74L250.526 160.348ZM244.19 160.36C242.462 160.36 240.99 159.984 239.774 159.232C238.558 158.472 237.626 157.416 236.978 156.064C236.338 154.712 236.018 153.144 236.018 151.36C236.018 149.576 236.338 148.008 236.978 146.656C237.626 145.304 238.558 144.252 239.774 143.5C240.99 142.74 242.462 142.36 244.19 142.36C245.91 142.36 247.378 142.74 248.594 143.5C249.818 144.252 250.75 145.304 251.39 146.656C252.03 148.008 252.35 149.576 252.35 151.36C252.35 153.144 252.03 154.712 251.39 156.064C250.75 157.416 249.818 158.472 248.594 159.232C247.378 159.984 245.91 160.36 244.19 160.36ZM244.19 157.972C245.414 157.988 246.43 157.72 247.238 157.168C248.054 156.608 248.666 155.832 249.074 154.84C249.482 153.84 249.686 152.68 249.686 151.36C249.686 150.04 249.482 148.888 249.074 147.904C248.666 146.912 248.054 146.14 247.238 145.588C246.43 145.036 245.414 144.756 244.19 144.748C242.966 144.732 241.946 145 241.13 145.552C240.322 146.104 239.714 146.88 239.306 147.88C238.898 148.88 238.69 150.04 238.682 151.36C238.674 152.68 238.874 153.836 239.282 154.828C239.69 155.812 240.302 156.58 241.118 157.132C241.942 157.684 242.966 157.964 244.19 157.972ZM258.907 160.348C258.011 160.348 257.259 160.204 256.651 159.916C256.043 159.628 255.547 159.252 255.163 158.788C254.787 158.316 254.499 157.804 254.299 157.252C254.099 156.7 253.963 156.16 253.891 155.632C253.819 155.104 253.783 154.64 253.783 154.24V147.04H256.327V153.412C256.327 153.916 256.367 154.436 256.447 154.972C256.535 155.5 256.695 155.992 256.927 156.448C257.167 156.904 257.499 157.272 257.923 157.552C258.355 157.832 258.915 157.972 259.603 157.972C260.051 157.972 260.475 157.9 260.875 157.756C261.275 157.604 261.623 157.364 261.919 157.036C262.223 156.708 262.459 156.276 262.627 155.74C262.803 155.204 262.891 154.552 262.891 153.784L264.451 154.372C264.451 155.548 264.231 156.588 263.791 157.492C263.351 158.388 262.719 159.088 261.895 159.592C261.071 160.096 260.075 160.348 258.907 160.348ZM263.191 160V156.256H262.891V147.04H265.423V160H263.191ZM268.309 144.916V142.48H270.817V144.916H268.309ZM268.309 160V147.04H270.817V160H268.309ZM279.245 160.36C277.917 160.36 276.789 160.064 275.861 159.472C274.933 158.88 274.221 158.068 273.725 157.036C273.237 156.004 272.989 154.832 272.981 153.52C272.989 152.184 273.245 151.004 273.749 149.98C274.253 148.948 274.973 148.14 275.909 147.556C276.845 146.972 277.969 146.68 279.281 146.68C280.697 146.68 281.905 147.032 282.905 147.736C283.913 148.44 284.577 149.404 284.897 150.628L282.401 151.348C282.153 150.62 281.745 150.056 281.177 149.656C280.617 149.248 279.973 149.044 279.245 149.044C278.421 149.044 277.745 149.24 277.217 149.632C276.689 150.016 276.297 150.544 276.041 151.216C275.785 151.888 275.653 152.656 275.645 153.52C275.653 154.856 275.957 155.936 276.557 156.76C277.165 157.584 278.061 157.996 279.245 157.996C280.053 157.996 280.705 157.812 281.201 157.444C281.705 157.068 282.089 156.532 282.353 155.836L284.897 156.436C284.473 157.7 283.773 158.672 282.797 159.352C281.821 160.024 280.637 160.36 279.245 160.36ZM286.609 160L286.621 142.72H289.165V153.28L294.253 147.04H297.445L292.069 153.52L297.997 160H294.589L289.165 153.76V160H286.609ZM307.528 160.348C305.952 160.348 304.668 160 303.676 159.304C302.684 158.608 302.076 157.628 301.852 156.364L304.42 155.968C304.58 156.64 304.948 157.172 305.524 157.564C306.108 157.948 306.832 158.14 307.696 158.14C308.48 158.14 309.092 157.98 309.532 157.66C309.98 157.34 310.204 156.9 310.204 156.34C310.204 156.012 310.124 155.748 309.964 155.548C309.812 155.34 309.488 155.144 308.992 154.96C308.496 154.776 307.74 154.548 306.724 154.276C305.612 153.988 304.728 153.68 304.072 153.352C303.424 153.016 302.96 152.628 302.68 152.188C302.408 151.74 302.272 151.2 302.272 150.568C302.272 149.784 302.48 149.1 302.896 148.516C303.312 147.932 303.896 147.48 304.648 147.16C305.408 146.84 306.296 146.68 307.312 146.68C308.304 146.68 309.188 146.836 309.964 147.148C310.74 147.46 311.368 147.904 311.848 148.48C312.328 149.048 312.616 149.716 312.712 150.484L310.144 150.952C310.056 150.328 309.764 149.836 309.268 149.476C308.772 149.116 308.128 148.92 307.336 148.888C306.576 148.856 305.96 148.984 305.488 149.272C305.016 149.552 304.78 149.94 304.78 150.436C304.78 150.724 304.868 150.968 305.044 151.168C305.228 151.368 305.58 151.56 306.1 151.744C306.62 151.928 307.388 152.148 308.404 152.404C309.492 152.684 310.356 152.996 310.996 153.34C311.636 153.676 312.092 154.08 312.364 154.552C312.644 155.016 312.784 155.58 312.784 156.244C312.784 157.524 312.316 158.528 311.38 159.256C310.452 159.984 309.168 160.348 307.528 160.348ZM320.467 160.36C319.179 160.36 318.047 160.08 317.071 159.52C316.103 158.952 315.347 158.164 314.803 157.156C314.267 156.14 313.999 154.964 313.999 153.628C313.999 152.212 314.263 150.984 314.791 149.944C315.327 148.904 316.071 148.1 317.023 147.532C317.975 146.964 319.083 146.68 320.347 146.68C321.667 146.68 322.791 146.988 323.719 147.604C324.647 148.212 325.339 149.08 325.795 150.208C326.259 151.336 326.443 152.676 326.347 154.228H323.839V153.316C323.823 151.812 323.535 150.7 322.975 149.98C322.423 149.26 321.579 148.9 320.443 148.9C319.187 148.9 318.243 149.296 317.611 150.088C316.979 150.88 316.663 152.024 316.663 153.52C316.663 154.944 316.979 156.048 317.611 156.832C318.243 157.608 319.155 157.996 320.347 157.996C321.131 157.996 321.807 157.82 322.375 157.468C322.951 157.108 323.399 156.596 323.719 155.932L326.179 156.712C325.675 157.872 324.911 158.772 323.887 159.412C322.863 160.044 321.723 160.36 320.467 160.36ZM315.847 154.228V152.272H325.099V154.228H315.847ZM328.319 160V147.04H330.551V150.184L330.239 149.776C330.399 149.36 330.607 148.98 330.863 148.636C331.119 148.284 331.415 147.996 331.751 147.772C332.079 147.532 332.443 147.348 332.843 147.22C333.251 147.084 333.667 147.004 334.091 146.98C334.515 146.948 334.923 146.968 335.315 147.04V149.392C334.891 149.28 334.419 149.248 333.899 149.296C333.387 149.344 332.915 149.508 332.483 149.788C332.075 150.052 331.751 150.372 331.511 150.748C331.279 151.124 331.111 151.544 331.007 152.008C330.903 152.464 330.851 152.948 330.851 153.46V160H328.319ZM340.385 160L335.681 147.04H338.213L341.657 156.856L345.101 147.04H347.633L342.929 160H340.385ZM349.315 144.916V142.48H351.823V144.916H349.315ZM349.315 160V147.04H351.823V160H349.315ZM360.25 160.36C358.922 160.36 357.794 160.064 356.866 159.472C355.938 158.88 355.226 158.068 354.73 157.036C354.242 156.004 353.994 154.832 353.986 153.52C353.994 152.184 354.25 151.004 354.754 149.98C355.258 148.948 355.978 148.14 356.914 147.556C357.85 146.972 358.974 146.68 360.286 146.68C361.702 146.68 362.91 147.032 363.91 147.736C364.918 148.44 365.582 149.404 365.902 150.628L363.406 151.348C363.158 150.62 362.75 150.056 362.182 149.656C361.622 149.248 360.978 149.044 360.25 149.044C359.426 149.044 358.75 149.24 358.222 149.632C357.694 150.016 357.302 150.544 357.046 151.216C356.79 151.888 356.658 152.656 356.65 153.52C356.658 154.856 356.962 155.936 357.562 156.76C358.17 157.584 359.066 157.996 360.25 157.996C361.058 157.996 361.71 157.812 362.206 157.444C362.71 157.068 363.094 156.532 363.358 155.836L365.902 156.436C365.478 157.7 364.778 158.672 363.802 159.352C362.826 160.024 361.642 160.36 360.25 160.36ZM373.023 160.36C371.735 160.36 370.603 160.08 369.627 159.52C368.659 158.952 367.903 158.164 367.359 157.156C366.823 156.14 366.555 154.964 366.555 153.628C366.555 152.212 366.819 150.984 367.347 149.944C367.883 148.904 368.627 148.1 369.579 147.532C370.531 146.964 371.639 146.68 372.903 146.68C374.223 146.68 375.347 146.988 376.275 147.604C377.203 148.212 377.895 149.08 378.351 150.208C378.815 151.336 378.999 152.676 378.903 154.228H376.395V153.316C376.379 151.812 376.091 150.7 375.531 149.98C374.979 149.26 374.135 148.9 372.999 148.9C371.743 148.9 370.799 149.296 370.167 150.088C369.535 150.88 369.219 152.024 369.219 153.52C369.219 154.944 369.535 156.048 370.167 156.832C370.799 157.608 371.711 157.996 372.903 157.996C373.687 157.996 374.363 157.82 374.931 157.468C375.507 157.108 375.955 156.596 376.275 155.932L378.735 156.712C378.231 157.872 377.467 158.772 376.443 159.412C375.419 160.044 374.279 160.36 373.023 160.36ZM368.403 154.228V152.272H377.655V154.228H368.403Z" fill="#1E1B1B"/>
<ellipse cx="182.394" cy="152" rx="37.425" ry="35" fill="#5CBA99"/>
<path d="M199.203 160V155.752C199.203 155.416 199.173 155.072 199.115 154.72C199.061 154.363 198.955 154.032 198.795 153.728C198.64 153.424 198.419 153.179 198.131 152.992C197.848 152.805 197.477 152.712 197.019 152.712C196.72 152.712 196.437 152.763 196.171 152.864C195.904 152.96 195.669 153.117 195.467 153.336C195.269 153.555 195.112 153.843 194.995 154.2C194.883 154.557 194.827 154.992 194.827 155.504L193.787 155.112C193.787 154.328 193.933 153.637 194.227 153.04C194.52 152.437 194.941 151.968 195.491 151.632C196.04 151.296 196.704 151.128 197.483 151.128C198.08 151.128 198.581 151.224 198.987 151.416C199.392 151.608 199.72 151.861 199.971 152.176C200.227 152.485 200.421 152.824 200.555 153.192C200.688 153.56 200.779 153.92 200.827 154.272C200.875 154.624 200.899 154.933 200.899 155.2V160H199.203ZM193.131 160V148.48H194.627V154.696H194.827V160H193.131ZM202.982 160V151.36H204.47V153.456L204.262 153.184C204.369 152.907 204.508 152.653 204.678 152.424C204.849 152.189 205.046 151.997 205.27 151.848C205.489 151.688 205.732 151.565 205.998 151.48C206.27 151.389 206.548 151.336 206.83 151.32C207.113 151.299 207.385 151.312 207.646 151.36V152.928C207.364 152.853 207.049 152.832 206.702 152.864C206.361 152.896 206.046 153.005 205.758 153.192C205.486 153.368 205.27 153.581 205.11 153.832C204.956 154.083 204.844 154.363 204.774 154.672C204.705 154.976 204.67 155.299 204.67 155.64V160H202.982Z" fill="white"/>
<path d="M160.07 160.988L160.082 158.756L167.606 152.012C168.214 151.476 168.626 150.964 168.842 150.476C169.066 149.988 169.178 149.5 169.178 149.012C169.178 148.396 169.042 147.844 168.77 147.356C168.498 146.86 168.122 146.468 167.642 146.18C167.162 145.892 166.61 145.748 165.986 145.748C165.346 145.748 164.774 145.9 164.27 146.204C163.774 146.5 163.386 146.896 163.106 147.392C162.826 147.888 162.69 148.424 162.698 149H160.13C160.13 147.88 160.382 146.9 160.886 146.06C161.398 145.212 162.098 144.552 162.986 144.08C163.874 143.6 164.89 143.36 166.034 143.36C167.122 143.36 168.098 143.608 168.962 144.104C169.826 144.592 170.506 145.264 171.002 146.12C171.506 146.976 171.758 147.952 171.758 149.048C171.758 149.84 171.654 150.512 171.446 151.064C171.238 151.616 170.926 152.128 170.51 152.6C170.094 153.072 169.574 153.584 168.95 154.136L163.142 159.32L162.866 158.6H171.758V160.988H160.07ZM180.767 161V157.988H172.967V155.612L178.583 143.72H181.451L175.835 155.612H180.767V150.932H183.311V155.612H185.027V157.988H183.311V161H180.767Z" fill="white"/>
<defs>
<filter id="filter0_d_482_1626" x="0" y="0" width="562.608" height="362" filterUnits="userSpaceOnUse" color-interpolation-filters="sRGB">
<feFlood flood-opacity="0" result="BackgroundImageFix"/>
<feColorMatrix in="SourceAlpha" type="matrix" values="0 0 0 0 0 0 0 0 0 0 0 0 0 0 0 0 0 0 127 0" result="hardAlpha"/>
<feOffset dy="28"/>
<feGaussianBlur stdDeviation="59"/>
<feComposite in2="hardAlpha" operator="out"/>
<feColorMatrix type="matrix" values="0 0 0 0 0.427425 0 0 0 0 0.42375 0 0 0 0 0.45 0 0 0 0.12 0"/>
<feBlend mode="normal" in2="BackgroundImageFix" result="effect1_dropShadow_482_1626"/>
<feBlend mode="normal" in="SourceGraphic" in2="effect1_dropShadow_482_1626" result="shape"/>
</filter>
<linearGradient id="paint0_linear_482_1626" x1="255.641" y1="-8.99999" x2="355.434" y2="329.834" gradientUnits="userSpaceOnUse">
<stop stop-color="white"/>
<stop offset="1" stop-color="white"/>
</linearGradient>
</defs>
</svg>
